<?xml version="1.0" encoding="utf-8"?>
<!DOCTYPE svg PUBLIC "-//W3C//DTD SVG 1.1//EN" "http://www.w3.org/Graphics/SVG/1.1/DTD/svg11.dtd">
<svg enable-background="new 0 0 2277 2277" height="2277px" id="Layer_1" version="1.1"
     viewBox="0 0 2277 2277"
     width="2277px" x="0px" xml:space="preserve" xmlns="http://www.w3.org/2000/svg" y="0px">
<rect fill="rgb(255,255,255)" height="2277" width="2277" x="0" y="0"/>
    <g transform="translate(138,138)"><g transform="translate(621,0) scale(0.69,0.69)"><g style="fill: rgb(0, 0, 0);" transform="">
<rect height="100" width="100"/>
</g></g>
        <g transform="translate(828,0) scale(0.69,0.69)"><g style="fill: rgb(0, 0, 0);" transform="">
<rect height="100" width="100"/>
</g></g>
        <g transform="translate(966,0) scale(0.69,0.69)"><g style="fill: rgb(0, 0, 0);" transform="">
<rect height="100" width="100"/>
</g></g>
        <g transform="translate(1035,0) scale(0.69,0.69)"><g style="fill: rgb(0, 0, 0);" transform="">
<rect height="100" width="100"/>
</g></g>
        <g transform="translate(1311,0) scale(0.69,0.69)"><g style="fill: rgb(0, 0, 0);" transform="">
<rect height="100" width="100"/>
</g></g>
        <g transform="translate(552,69) scale(0.69,0.69)"><g style="fill: rgb(0, 0, 0);" transform="">
<rect height="100" width="100"/>
</g></g>
        <g transform="translate(690,69) scale(0.69,0.69)"><g style="fill: rgb(0, 0, 0);" transform="">
<rect height="100" width="100"/>
</g></g>
        <g transform="translate(759,69) scale(0.69,0.69)"><g style="fill: rgb(0, 0, 0);" transform="">
<rect height="100" width="100"/>
</g></g>
        <g transform="translate(828,69) scale(0.69,0.69)"><g style="fill: rgb(0, 0, 0);" transform="">
<rect height="100" width="100"/>
</g></g>
        <g transform="translate(897,69) scale(0.69,0.69)"><g style="fill: rgb(0, 0, 0);" transform="">
<rect height="100" width="100"/>
</g></g>
        <g transform="translate(966,69) scale(0.69,0.69)"><g style="fill: rgb(0, 0, 0);" transform="">
<rect height="100" width="100"/>
</g></g>
        <g transform="translate(1035,69) scale(0.69,0.69)"><g style="fill: rgb(0, 0, 0);" transform="">
<rect height="100" width="100"/>
</g></g>
        <g transform="translate(1104,69) scale(0.69,0.69)"><g style="fill: rgb(0, 0, 0);" transform="">
<rect height="100" width="100"/>
</g></g>
        <g transform="translate(1173,69) scale(0.69,0.69)"><g style="fill: rgb(0, 0, 0);" transform="">
<rect height="100" width="100"/>
</g></g>
        <g transform="translate(1242,69) scale(0.69,0.69)"><g style="fill: rgb(0, 0, 0);" transform="">
<rect height="100" width="100"/>
</g></g>
        <g transform="translate(1311,69) scale(0.69,0.69)"><g style="fill: rgb(0, 0, 0);" transform="">
<rect height="100" width="100"/>
</g></g>
        <g transform="translate(621,138) scale(0.69,0.69)"><g style="fill: rgb(0, 0, 0);" transform="">
<rect height="100" width="100"/>
</g></g>
        <g transform="translate(690,138) scale(0.69,0.69)"><g style="fill: rgb(0, 0, 0);" transform="">
<rect height="100" width="100"/>
</g></g>
        <g transform="translate(759,138) scale(0.69,0.69)"><g style="fill: rgb(0, 0, 0);" transform="">
<rect height="100" width="100"/>
</g></g>
        <g transform="translate(1380,138) scale(0.69,0.69)"><g style="fill: rgb(0, 0, 0);" transform="">
<rect height="100" width="100"/>
</g></g>
        <g transform="translate(621,207) scale(0.69,0.69)"><g style="fill: rgb(0, 0, 0);" transform="">
<rect height="100" width="100"/>
</g></g>
        <g transform="translate(966,207) scale(0.69,0.69)"><g style="fill: rgb(0, 0, 0);" transform="">
<rect height="100" width="100"/>
</g></g>
        <g transform="translate(1242,207) scale(0.69,0.69)"><g style="fill: rgb(0, 0, 0);" transform="">
<rect height="100" width="100"/>
</g></g>
        <g transform="translate(552,276) scale(0.69,0.69)"><g style="fill: rgb(0, 0, 0);" transform="">
<rect height="100" width="100"/>
</g></g>
        <g transform="translate(621,276) scale(0.69,0.69)"><g style="fill: rgb(0, 0, 0);" transform="">
<rect height="100" width="100"/>
</g></g>
        <g transform="translate(690,276) scale(0.69,0.69)"><g style="fill: rgb(0, 0, 0);" transform="">
<rect height="100" width="100"/>
</g></g>
        <g transform="translate(897,276) scale(0.69,0.69)"><g style="fill: rgb(0, 0, 0);" transform="">
<rect height="100" width="100"/>
</g></g>
        <g transform="translate(966,276) scale(0.69,0.69)"><g style="fill: rgb(0, 0, 0);" transform="">
<rect height="100" width="100"/>
</g></g>
        <g transform="translate(1035,276) scale(0.69,0.69)"><g style="fill: rgb(0, 0, 0);" transform="">
<rect height="100" width="100"/>
</g></g>
        <g transform="translate(1242,276) scale(0.69,0.69)"><g style="fill: rgb(0, 0, 0);" transform="">
<rect height="100" width="100"/>
</g></g>
        <g transform="translate(1311,276) scale(0.69,0.69)"><g style="fill: rgb(0, 0, 0);" transform="">
<rect height="100" width="100"/>
</g></g>
        <g transform="translate(690,345) scale(0.69,0.69)"><g style="fill: rgb(0, 0, 0);" transform="">
<rect height="100" width="100"/>
</g></g>
        <g transform="translate(966,345) scale(0.69,0.69)"><g style="fill: rgb(0, 0, 0);" transform="">
<rect height="100" width="100"/>
</g></g>
        <g transform="translate(1035,345) scale(0.69,0.69)"><g style="fill: rgb(0, 0, 0);" transform="">
<rect height="100" width="100"/>
</g></g>
        <g transform="translate(1104,345) scale(0.69,0.69)"><g style="fill: rgb(0, 0, 0);" transform="">
<rect height="100" width="100"/>
</g></g>
        <g transform="translate(1311,345) scale(0.69,0.69)"><g style="fill: rgb(0, 0, 0);" transform="">
<rect height="100" width="100"/>
</g></g>
        <g transform="translate(552,414) scale(0.69,0.69)"><g style="fill: rgb(0, 0, 0);" transform="">
<rect height="100" width="100"/>
</g></g>
        <g transform="translate(690,414) scale(0.69,0.69)"><g style="fill: rgb(0, 0, 0);" transform="">
<rect height="100" width="100"/>
</g></g>
        <g transform="translate(828,414) scale(0.69,0.69)"><g style="fill: rgb(0, 0, 0);" transform="">
<rect height="100" width="100"/>
</g></g>
        <g transform="translate(966,414) scale(0.69,0.69)"><g style="fill: rgb(0, 0, 0);" transform="">
<rect height="100" width="100"/>
</g></g>
        <g transform="translate(1104,414) scale(0.69,0.69)"><g style="fill: rgb(0, 0, 0);" transform="">
<rect height="100" width="100"/>
</g></g>
        <g transform="translate(1242,414) scale(0.69,0.69)"><g style="fill: rgb(0, 0, 0);" transform="">
<rect height="100" width="100"/>
</g></g>
        <g transform="translate(1380,414) scale(0.69,0.69)"><g style="fill: rgb(0, 0, 0);" transform="">
<rect height="100" width="100"/>
</g></g>
        <g transform="translate(690,483) scale(0.69,0.69)"><g style="fill: rgb(0, 0, 0);" transform="">
<rect height="100" width="100"/>
</g></g>
        <g transform="translate(759,483) scale(0.69,0.69)"><g style="fill: rgb(0, 0, 0);" transform="">
<rect height="100" width="100"/>
</g></g>
        <g transform="translate(828,483) scale(0.69,0.69)"><g style="fill: rgb(0, 0, 0);" transform="">
<rect height="100" width="100"/>
</g></g>
        <g transform="translate(897,483) scale(0.69,0.69)"><g style="fill: rgb(0, 0, 0);" transform="">
<rect height="100" width="100"/>
</g></g>
        <g transform="translate(1104,483) scale(0.69,0.69)"><g style="fill: rgb(0, 0, 0);" transform="">
<rect height="100" width="100"/>
</g></g>
        <g transform="translate(1173,483) scale(0.69,0.69)"><g style="fill: rgb(0, 0, 0);" transform="">
<rect height="100" width="100"/>
</g></g>
        <g transform="translate(1311,483) scale(0.69,0.69)"><g style="fill: rgb(0, 0, 0);" transform="">
<rect height="100" width="100"/>
</g></g>
        <g transform="translate(1380,483) scale(0.69,0.69)"><g style="fill: rgb(0, 0, 0);" transform="">
<rect height="100" width="100"/>
</g></g>
        <g transform="translate(0,552) scale(0.69,0.69)"><g style="fill: rgb(0, 0, 0);" transform="">
<rect height="100" width="100"/>
</g></g>
        <g transform="translate(138,552) scale(0.69,0.69)"><g style="fill: rgb(0, 0, 0);" transform="">
<rect height="100" width="100"/>
</g></g>
        <g transform="translate(276,552) scale(0.69,0.69)"><g style="fill: rgb(0, 0, 0);" transform="">
<rect height="100" width="100"/>
</g></g>
        <g transform="translate(414,552) scale(0.69,0.69)"><g style="fill: rgb(0, 0, 0);" transform="">
<rect height="100" width="100"/>
</g></g>
        <g transform="translate(621,552) scale(0.69,0.69)"><g style="fill: rgb(0, 0, 0);" transform="">
<rect height="100" width="100"/>
</g></g>
        <g transform="translate(759,552) scale(0.69,0.69)"><g style="fill: rgb(0, 0, 0);" transform="">
<rect height="100" width="100"/>
</g></g>
        <g transform="translate(897,552) scale(0.69,0.69)"><g style="fill: rgb(0, 0, 0);" transform="">
<rect height="100" width="100"/>
</g></g>
        <g transform="translate(1035,552) scale(0.69,0.69)"><g style="fill: rgb(0, 0, 0);" transform="">
<rect height="100" width="100"/>
</g></g>
        <g transform="translate(1104,552) scale(0.69,0.69)"><g style="fill: rgb(0, 0, 0);" transform="">
<rect height="100" width="100"/>
</g></g>
        <g transform="translate(1173,552) scale(0.69,0.69)"><g style="fill: rgb(0, 0, 0);" transform="">
<rect height="100" width="100"/>
</g></g>
        <g transform="translate(1242,552) scale(0.69,0.69)"><g style="fill: rgb(0, 0, 0);" transform="">
<rect height="100" width="100"/>
</g></g>
        <g transform="translate(1656,552) scale(0.69,0.69)"><g style="fill: rgb(0, 0, 0);" transform="">
<rect height="100" width="100"/>
</g></g>
        <g transform="translate(1863,552) scale(0.69,0.69)"><g style="fill: rgb(0, 0, 0);" transform="">
<rect height="100" width="100"/>
</g></g>
        <g transform="translate(69,621) scale(0.69,0.69)"><g style="fill: rgb(0, 0, 0);" transform="">
<rect height="100" width="100"/>
</g></g>
        <g transform="translate(138,621) scale(0.69,0.69)"><g style="fill: rgb(0, 0, 0);" transform="">
<rect height="100" width="100"/>
</g></g>
        <g transform="translate(483,621) scale(0.69,0.69)"><g style="fill: rgb(0, 0, 0);" transform="">
<rect height="100" width="100"/>
</g></g>
        <g transform="translate(552,621) scale(0.69,0.69)"><g style="fill: rgb(0, 0, 0);" transform="">
<rect height="100" width="100"/>
</g></g>
        <g transform="translate(621,621) scale(0.69,0.69)"><g style="fill: rgb(0, 0, 0);" transform="">
<rect height="100" width="100"/>
</g></g>
        <g transform="translate(690,621) scale(0.69,0.69)"><g style="fill: rgb(0, 0, 0);" transform="">
<rect height="100" width="100"/>
</g></g>
        <g transform="translate(828,621) scale(0.69,0.69)"><g style="fill: rgb(0, 0, 0);" transform="">
<rect height="100" width="100"/>
</g></g>
        <g transform="translate(897,621) scale(0.69,0.69)"><g style="fill: rgb(0, 0, 0);" transform="">
<rect height="100" width="100"/>
</g></g>
        <g transform="translate(966,621) scale(0.69,0.69)"><g style="fill: rgb(0, 0, 0);" transform="">
<rect height="100" width="100"/>
</g></g>
        <g transform="translate(1380,621) scale(0.69,0.69)"><g style="fill: rgb(0, 0, 0);" transform="">
<rect height="100" width="100"/>
</g></g>
        <g transform="translate(1449,621) scale(0.69,0.69)"><g style="fill: rgb(0, 0, 0);" transform="">
<rect height="100" width="100"/>
</g></g>
        <g transform="translate(1518,621) scale(0.69,0.69)"><g style="fill: rgb(0, 0, 0);" transform="">
<rect height="100" width="100"/>
</g></g>
        <g transform="translate(1725,621) scale(0.69,0.69)"><g style="fill: rgb(0, 0, 0);" transform="">
<rect height="100" width="100"/>
</g></g>
        <g transform="translate(1932,621) scale(0.69,0.69)"><g style="fill: rgb(0, 0, 0);" transform="">
<rect height="100" width="100"/>
</g></g>
        <g transform="translate(207,690) scale(0.69,0.69)"><g style="fill: rgb(0, 0, 0);" transform="">
<rect height="100" width="100"/>
</g></g>
        <g transform="translate(276,690) scale(0.69,0.69)"><g style="fill: rgb(0, 0, 0);" transform="">
<rect height="100" width="100"/>
</g></g>
        <g transform="translate(345,690) scale(0.69,0.69)"><g style="fill: rgb(0, 0, 0);" transform="">
<rect height="100" width="100"/>
</g></g>
        <g transform="translate(414,690) scale(0.69,0.69)"><g style="fill: rgb(0, 0, 0);" transform="">
<rect height="100" width="100"/>
</g></g>
        <g transform="translate(483,690) scale(0.69,0.69)"><g style="fill: rgb(0, 0, 0);" transform="">
<rect height="100" width="100"/>
</g></g>
        <g transform="translate(690,690) scale(0.69,0.69)"><g style="fill: rgb(0, 0, 0);" transform="">
<rect height="100" width="100"/>
</g></g>
        <g transform="translate(828,690) scale(0.69,0.69)"><g style="fill: rgb(0, 0, 0);" transform="">
<rect height="100" width="100"/>
</g></g>
        <g transform="translate(1173,690) scale(0.69,0.69)"><g style="fill: rgb(0, 0, 0);" transform="">
<rect height="100" width="100"/>
</g></g>
        <g transform="translate(1449,690) scale(0.69,0.69)"><g style="fill: rgb(0, 0, 0);" transform="">
<rect height="100" width="100"/>
</g></g>
        <g transform="translate(1518,690) scale(0.69,0.69)"><g style="fill: rgb(0, 0, 0);" transform="">
<rect height="100" width="100"/>
</g></g>
        <g transform="translate(1587,690) scale(0.69,0.69)"><g style="fill: rgb(0, 0, 0);" transform="">
<rect height="100" width="100"/>
</g></g>
        <g transform="translate(1656,690) scale(0.69,0.69)"><g style="fill: rgb(0, 0, 0);" transform="">
<rect height="100" width="100"/>
</g></g>
        <g transform="translate(1794,690) scale(0.69,0.69)"><g style="fill: rgb(0, 0, 0);" transform="">
<rect height="100" width="100"/>
</g></g>
        <g transform="translate(1863,690) scale(0.69,0.69)"><g style="fill: rgb(0, 0, 0);" transform="">
<rect height="100" width="100"/>
</g></g>
        <g transform="translate(1932,690) scale(0.69,0.69)"><g style="fill: rgb(0, 0, 0);" transform="">
<rect height="100" width="100"/>
</g></g>
        <g transform="translate(0,759) scale(0.69,0.69)"><g style="fill: rgb(0, 0, 0);" transform="">
<rect height="100" width="100"/>
</g></g>
        <g transform="translate(69,759) scale(0.69,0.69)"><g style="fill: rgb(0, 0, 0);" transform="">
<rect height="100" width="100"/>
</g></g>
        <g transform="translate(138,759) scale(0.69,0.69)"><g style="fill: rgb(0, 0, 0);" transform="">
<rect height="100" width="100"/>
</g></g>
        <g transform="translate(207,759) scale(0.69,0.69)"><g style="fill: rgb(0, 0, 0);" transform="">
<rect height="100" width="100"/>
</g></g>
        <g transform="translate(276,759) scale(0.69,0.69)"><g style="fill: rgb(0, 0, 0);" transform="">
<rect height="100" width="100"/>
</g></g>
        <g transform="translate(483,759) scale(0.69,0.69)"><g style="fill: rgb(0, 0, 0);" transform="">
<rect height="100" width="100"/>
</g></g>
        <g transform="translate(552,759) scale(0.69,0.69)"><g style="fill: rgb(0, 0, 0);" transform="">
<rect height="100" width="100"/>
</g></g>
        <g transform="translate(690,759) scale(0.69,0.69)"><g style="fill: rgb(0, 0, 0);" transform="">
<rect height="100" width="100"/>
</g></g>
        <g transform="translate(759,759) scale(0.69,0.69)"><g style="fill: rgb(0, 0, 0);" transform="">
<rect height="100" width="100"/>
</g></g>
        <g transform="translate(897,759) scale(0.69,0.69)"><g style="fill: rgb(0, 0, 0);" transform="">
<rect height="100" width="100"/>
</g></g>
        <g transform="translate(966,759) scale(0.69,0.69)"><g style="fill: rgb(0, 0, 0);" transform="">
<rect height="100" width="100"/>
</g></g>
        <g transform="translate(1173,759) scale(0.69,0.69)"><g style="fill: rgb(0, 0, 0);" transform="">
<rect height="100" width="100"/>
</g></g>
        <g transform="translate(1311,759) scale(0.69,0.69)"><g style="fill: rgb(0, 0, 0);" transform="">
<rect height="100" width="100"/>
</g></g>
        <g transform="translate(1449,759) scale(0.69,0.69)"><g style="fill: rgb(0, 0, 0);" transform="">
<rect height="100" width="100"/>
</g></g>
        <g transform="translate(1863,759) scale(0.69,0.69)"><g style="fill: rgb(0, 0, 0);" transform="">
<rect height="100" width="100"/>
</g></g>
        <g transform="translate(0,828) scale(0.69,0.69)"><g style="fill: rgb(0, 0, 0);" transform="">
<rect height="100" width="100"/>
</g></g>
        <g transform="translate(207,828) scale(0.69,0.69)"><g style="fill: rgb(0, 0, 0);" transform="">
<rect height="100" width="100"/>
</g></g>
        <g transform="translate(345,828) scale(0.69,0.69)"><g style="fill: rgb(0, 0, 0);" transform="">
<rect height="100" width="100"/>
</g></g>
        <g transform="translate(414,828) scale(0.69,0.69)"><g style="fill: rgb(0, 0, 0);" transform="">
<rect height="100" width="100"/>
</g></g>
        <g transform="translate(483,828) scale(0.69,0.69)"><g style="fill: rgb(0, 0, 0);" transform="">
<rect height="100" width="100"/>
</g></g>
        <g transform="translate(552,828) scale(0.69,0.69)"><g style="fill: rgb(0, 0, 0);" transform="">
<rect height="100" width="100"/>
</g></g>
        <g transform="translate(690,828) scale(0.69,0.69)"><g style="fill: rgb(0, 0, 0);" transform="">
<rect height="100" width="100"/>
</g></g>
        <g transform="translate(759,828) scale(0.69,0.69)"><g style="fill: rgb(0, 0, 0);" transform="">
<rect height="100" width="100"/>
</g></g>
        <g transform="translate(966,828) scale(0.69,0.69)"><g style="fill: rgb(0, 0, 0);" transform="">
<rect height="100" width="100"/>
</g></g>
        <g transform="translate(1104,828) scale(0.69,0.69)"><g style="fill: rgb(0, 0, 0);" transform="">
<rect height="100" width="100"/>
</g></g>
        <g transform="translate(1173,828) scale(0.69,0.69)"><g style="fill: rgb(0, 0, 0);" transform="">
<rect height="100" width="100"/>
</g></g>
        <g transform="translate(1311,828) scale(0.69,0.69)"><g style="fill: rgb(0, 0, 0);" transform="">
<rect height="100" width="100"/>
</g></g>
        <g transform="translate(1380,828) scale(0.69,0.69)"><g style="fill: rgb(0, 0, 0);" transform="">
<rect height="100" width="100"/>
</g></g>
        <g transform="translate(1449,828) scale(0.69,0.69)"><g style="fill: rgb(0, 0, 0);" transform="">
<rect height="100" width="100"/>
</g></g>
        <g transform="translate(1518,828) scale(0.69,0.69)"><g style="fill: rgb(0, 0, 0);" transform="">
<rect height="100" width="100"/>
</g></g>
        <g transform="translate(1725,828) scale(0.69,0.69)"><g style="fill: rgb(0, 0, 0);" transform="">
<rect height="100" width="100"/>
</g></g>
        <g transform="translate(1863,828) scale(0.69,0.69)"><g style="fill: rgb(0, 0, 0);" transform="">
<rect height="100" width="100"/>
</g></g>
        <g transform="translate(1932,828) scale(0.69,0.69)"><g style="fill: rgb(0, 0, 0);" transform="">
<rect height="100" width="100"/>
</g></g>
        <g transform="translate(69,897) scale(0.69,0.69)"><g style="fill: rgb(0, 0, 0);" transform="">
<rect height="100" width="100"/>
</g></g>
        <g transform="translate(345,897) scale(0.69,0.69)"><g style="fill: rgb(0, 0, 0);" transform="">
<rect height="100" width="100"/>
</g></g>
        <g transform="translate(552,897) scale(0.69,0.69)"><g style="fill: rgb(0, 0, 0);" transform="">
<rect height="100" width="100"/>
</g></g>
        <g transform="translate(690,897) scale(0.69,0.69)"><g style="fill: rgb(0, 0, 0);" transform="">
<rect height="100" width="100"/>
</g></g>
        <g transform="translate(759,897) scale(0.69,0.69)"><g style="fill: rgb(0, 0, 0);" transform="">
<rect height="100" width="100"/>
</g></g>
        <g transform="translate(828,897) scale(0.69,0.69)"><g style="fill: rgb(0, 0, 0);" transform="">
<rect height="100" width="100"/>
</g></g>
        <g transform="translate(1380,897) scale(0.69,0.69)"><g style="fill: rgb(0, 0, 0);" transform="">
<rect height="100" width="100"/>
</g></g>
        <g transform="translate(1518,897) scale(0.69,0.69)"><g style="fill: rgb(0, 0, 0);" transform="">
<rect height="100" width="100"/>
</g></g>
        <g transform="translate(1725,897) scale(0.69,0.69)"><g style="fill: rgb(0, 0, 0);" transform="">
<rect height="100" width="100"/>
</g></g>
        <g transform="translate(1932,897) scale(0.69,0.69)"><g style="fill: rgb(0, 0, 0);" transform="">
<rect height="100" width="100"/>
</g></g>
        <g transform="translate(0,966) scale(0.69,0.69)"><g style="fill: rgb(0, 0, 0);" transform="">
<rect height="100" width="100"/>
</g></g>
        <g transform="translate(69,966) scale(0.69,0.69)"><g style="fill: rgb(0, 0, 0);" transform="">
<rect height="100" width="100"/>
</g></g>
        <g transform="translate(207,966) scale(0.69,0.69)"><g style="fill: rgb(0, 0, 0);" transform="">
<rect height="100" width="100"/>
</g></g>
        <g transform="translate(276,966) scale(0.69,0.69)"><g style="fill: rgb(0, 0, 0);" transform="">
<rect height="100" width="100"/>
</g></g>
        <g transform="translate(414,966) scale(0.69,0.69)"><g style="fill: rgb(0, 0, 0);" transform="">
<rect height="100" width="100"/>
</g></g>
        <g transform="translate(552,966) scale(0.69,0.69)"><g style="fill: rgb(0, 0, 0);" transform="">
<rect height="100" width="100"/>
</g></g>
        <g transform="translate(621,966) scale(0.69,0.69)"><g style="fill: rgb(0, 0, 0);" transform="">
<rect height="100" width="100"/>
</g></g>
        <g transform="translate(690,966) scale(0.69,0.69)"><g style="fill: rgb(0, 0, 0);" transform="">
<rect height="100" width="100"/>
</g></g>
        <g transform="translate(828,966) scale(0.69,0.69)"><g style="fill: rgb(0, 0, 0);" transform="">
<rect height="100" width="100"/>
</g></g>
        <g transform="translate(897,966) scale(0.69,0.69)"><g style="fill: rgb(0, 0, 0);" transform="">
<rect height="100" width="100"/>
</g></g>
        <g transform="translate(1242,966) scale(0.69,0.69)"><g style="fill: rgb(0, 0, 0);" transform="">
<rect height="100" width="100"/>
</g></g>
        <g transform="translate(1587,966) scale(0.69,0.69)"><g style="fill: rgb(0, 0, 0);" transform="">
<rect height="100" width="100"/>
</g></g>
        <g transform="translate(1656,966) scale(0.69,0.69)"><g style="fill: rgb(0, 0, 0);" transform="">
<rect height="100" width="100"/>
</g></g>
        <g transform="translate(1725,966) scale(0.69,0.69)"><g style="fill: rgb(0, 0, 0);" transform="">
<rect height="100" width="100"/>
</g></g>
        <g transform="translate(1863,966) scale(0.69,0.69)"><g style="fill: rgb(0, 0, 0);" transform="">
<rect height="100" width="100"/>
</g></g>
        <g transform="translate(1932,966) scale(0.69,0.69)"><g style="fill: rgb(0, 0, 0);" transform="">
<rect height="100" width="100"/>
</g></g>
        <g transform="translate(138,1035) scale(0.69,0.69)"><g style="fill: rgb(0, 0, 0);" transform="">
<rect height="100" width="100"/>
</g></g>
        <g transform="translate(483,1035) scale(0.69,0.69)"><g style="fill: rgb(0, 0, 0);" transform="">
<rect height="100" width="100"/>
</g></g>
        <g transform="translate(828,1035) scale(0.69,0.69)"><g style="fill: rgb(0, 0, 0);" transform="">
<rect height="100" width="100"/>
</g></g>
        <g transform="translate(1104,1035) scale(0.69,0.69)"><g style="fill: rgb(0, 0, 0);" transform="">
<rect height="100" width="100"/>
</g></g>
        <g transform="translate(1173,1035) scale(0.69,0.69)"><g style="fill: rgb(0, 0, 0);" transform="">
<rect height="100" width="100"/>
</g></g>
        <g transform="translate(1242,1035) scale(0.69,0.69)"><g style="fill: rgb(0, 0, 0);" transform="">
<rect height="100" width="100"/>
</g></g>
        <g transform="translate(1380,1035) scale(0.69,0.69)"><g style="fill: rgb(0, 0, 0);" transform="">
<rect height="100" width="100"/>
</g></g>
        <g transform="translate(1449,1035) scale(0.69,0.69)"><g style="fill: rgb(0, 0, 0);" transform="">
<rect height="100" width="100"/>
</g></g>
        <g transform="translate(1518,1035) scale(0.69,0.69)"><g style="fill: rgb(0, 0, 0);" transform="">
<rect height="100" width="100"/>
</g></g>
        <g transform="translate(1656,1035) scale(0.69,0.69)"><g style="fill: rgb(0, 0, 0);" transform="">
<rect height="100" width="100"/>
</g></g>
        <g transform="translate(1725,1035) scale(0.69,0.69)"><g style="fill: rgb(0, 0, 0);" transform="">
<rect height="100" width="100"/>
</g></g>
        <g transform="translate(1863,1035) scale(0.69,0.69)"><g style="fill: rgb(0, 0, 0);" transform="">
<rect height="100" width="100"/>
</g></g>
        <g transform="translate(0,1104) scale(0.69,0.69)"><g style="fill: rgb(0, 0, 0);" transform="">
<rect height="100" width="100"/>
</g></g>
        <g transform="translate(69,1104) scale(0.69,0.69)"><g style="fill: rgb(0, 0, 0);" transform="">
<rect height="100" width="100"/>
</g></g>
        <g transform="translate(138,1104) scale(0.69,0.69)"><g style="fill: rgb(0, 0, 0);" transform="">
<rect height="100" width="100"/>
</g></g>
        <g transform="translate(414,1104) scale(0.69,0.69)"><g style="fill: rgb(0, 0, 0);" transform="">
<rect height="100" width="100"/>
</g></g>
        <g transform="translate(483,1104) scale(0.69,0.69)"><g style="fill: rgb(0, 0, 0);" transform="">
<rect height="100" width="100"/>
</g></g>
        <g transform="translate(552,1104) scale(0.69,0.69)"><g style="fill: rgb(0, 0, 0);" transform="">
<rect height="100" width="100"/>
</g></g>
        <g transform="translate(759,1104) scale(0.69,0.69)"><g style="fill: rgb(0, 0, 0);" transform="">
<rect height="100" width="100"/>
</g></g>
        <g transform="translate(828,1104) scale(0.69,0.69)"><g style="fill: rgb(0, 0, 0);" transform="">
<rect height="100" width="100"/>
</g></g>
        <g transform="translate(1035,1104) scale(0.69,0.69)"><g style="fill: rgb(0, 0, 0);" transform="">
<rect height="100" width="100"/>
</g></g>
        <g transform="translate(1104,1104) scale(0.69,0.69)"><g style="fill: rgb(0, 0, 0);" transform="">
<rect height="100" width="100"/>
</g></g>
        <g transform="translate(1173,1104) scale(0.69,0.69)"><g style="fill: rgb(0, 0, 0);" transform="">
<rect height="100" width="100"/>
</g></g>
        <g transform="translate(1380,1104) scale(0.69,0.69)"><g style="fill: rgb(0, 0, 0);" transform="">
<rect height="100" width="100"/>
</g></g>
        <g transform="translate(1449,1104) scale(0.69,0.69)"><g style="fill: rgb(0, 0, 0);" transform="">
<rect height="100" width="100"/>
</g></g>
        <g transform="translate(1518,1104) scale(0.69,0.69)"><g style="fill: rgb(0, 0, 0);" transform="">
<rect height="100" width="100"/>
</g></g>
        <g transform="translate(1725,1104) scale(0.69,0.69)"><g style="fill: rgb(0, 0, 0);" transform="">
<rect height="100" width="100"/>
</g></g>
        <g transform="translate(1863,1104) scale(0.69,0.69)"><g style="fill: rgb(0, 0, 0);" transform="">
<rect height="100" width="100"/>
</g></g>
        <g transform="translate(1932,1104) scale(0.69,0.69)"><g style="fill: rgb(0, 0, 0);" transform="">
<rect height="100" width="100"/>
</g></g>
        <g transform="translate(138,1173) scale(0.69,0.69)"><g style="fill: rgb(0, 0, 0);" transform="">
<rect height="100" width="100"/>
</g></g>
        <g transform="translate(207,1173) scale(0.69,0.69)"><g style="fill: rgb(0, 0, 0);" transform="">
<rect height="100" width="100"/>
</g></g>
        <g transform="translate(345,1173) scale(0.69,0.69)"><g style="fill: rgb(0, 0, 0);" transform="">
<rect height="100" width="100"/>
</g></g>
        <g transform="translate(483,1173) scale(0.69,0.69)"><g style="fill: rgb(0, 0, 0);" transform="">
<rect height="100" width="100"/>
</g></g>
        <g transform="translate(552,1173) scale(0.69,0.69)"><g style="fill: rgb(0, 0, 0);" transform="">
<rect height="100" width="100"/>
</g></g>
        <g transform="translate(690,1173) scale(0.69,0.69)"><g style="fill: rgb(0, 0, 0);" transform="">
<rect height="100" width="100"/>
</g></g>
        <g transform="translate(759,1173) scale(0.69,0.69)"><g style="fill: rgb(0, 0, 0);" transform="">
<rect height="100" width="100"/>
</g></g>
        <g transform="translate(897,1173) scale(0.69,0.69)"><g style="fill: rgb(0, 0, 0);" transform="">
<rect height="100" width="100"/>
</g></g>
        <g transform="translate(1380,1173) scale(0.69,0.69)"><g style="fill: rgb(0, 0, 0);" transform="">
<rect height="100" width="100"/>
</g></g>
        <g transform="translate(1449,1173) scale(0.69,0.69)"><g style="fill: rgb(0, 0, 0);" transform="">
<rect height="100" width="100"/>
</g></g>
        <g transform="translate(1518,1173) scale(0.69,0.69)"><g style="fill: rgb(0, 0, 0);" transform="">
<rect height="100" width="100"/>
</g></g>
        <g transform="translate(1725,1173) scale(0.69,0.69)"><g style="fill: rgb(0, 0, 0);" transform="">
<rect height="100" width="100"/>
</g></g>
        <g transform="translate(1794,1173) scale(0.69,0.69)"><g style="fill: rgb(0, 0, 0);" transform="">
<rect height="100" width="100"/>
</g></g>
        <g transform="translate(1932,1173) scale(0.69,0.69)"><g style="fill: rgb(0, 0, 0);" transform="">
<rect height="100" width="100"/>
</g></g>
        <g transform="translate(0,1242) scale(0.69,0.69)"><g style="fill: rgb(0, 0, 0);" transform="">
<rect height="100" width="100"/>
</g></g>
        <g transform="translate(345,1242) scale(0.69,0.69)"><g style="fill: rgb(0, 0, 0);" transform="">
<rect height="100" width="100"/>
</g></g>
        <g transform="translate(414,1242) scale(0.69,0.69)"><g style="fill: rgb(0, 0, 0);" transform="">
<rect height="100" width="100"/>
</g></g>
        <g transform="translate(552,1242) scale(0.69,0.69)"><g style="fill: rgb(0, 0, 0);" transform="">
<rect height="100" width="100"/>
</g></g>
        <g transform="translate(828,1242) scale(0.69,0.69)"><g style="fill: rgb(0, 0, 0);" transform="">
<rect height="100" width="100"/>
</g></g>
        <g transform="translate(966,1242) scale(0.69,0.69)"><g style="fill: rgb(0, 0, 0);" transform="">
<rect height="100" width="100"/>
</g></g>
        <g transform="translate(1173,1242) scale(0.69,0.69)"><g style="fill: rgb(0, 0, 0);" transform="">
<rect height="100" width="100"/>
</g></g>
        <g transform="translate(1380,1242) scale(0.69,0.69)"><g style="fill: rgb(0, 0, 0);" transform="">
<rect height="100" width="100"/>
</g></g>
        <g transform="translate(1518,1242) scale(0.69,0.69)"><g style="fill: rgb(0, 0, 0);" transform="">
<rect height="100" width="100"/>
</g></g>
        <g transform="translate(1587,1242) scale(0.69,0.69)"><g style="fill: rgb(0, 0, 0);" transform="">
<rect height="100" width="100"/>
</g></g>
        <g transform="translate(1656,1242) scale(0.69,0.69)"><g style="fill: rgb(0, 0, 0);" transform="">
<rect height="100" width="100"/>
</g></g>
        <g transform="translate(1863,1242) scale(0.69,0.69)"><g style="fill: rgb(0, 0, 0);" transform="">
<rect height="100" width="100"/>
</g></g>
        <g transform="translate(1932,1242) scale(0.69,0.69)"><g style="fill: rgb(0, 0, 0);" transform="">
<rect height="100" width="100"/>
</g></g>
        <g transform="translate(69,1311) scale(0.69,0.69)"><g style="fill: rgb(0, 0, 0);" transform="">
<rect height="100" width="100"/>
</g></g>
        <g transform="translate(276,1311) scale(0.69,0.69)"><g style="fill: rgb(0, 0, 0);" transform="">
<rect height="100" width="100"/>
</g></g>
        <g transform="translate(345,1311) scale(0.69,0.69)"><g style="fill: rgb(0, 0, 0);" transform="">
<rect height="100" width="100"/>
</g></g>
        <g transform="translate(552,1311) scale(0.69,0.69)"><g style="fill: rgb(0, 0, 0);" transform="">
<rect height="100" width="100"/>
</g></g>
        <g transform="translate(897,1311) scale(0.69,0.69)"><g style="fill: rgb(0, 0, 0);" transform="">
<rect height="100" width="100"/>
</g></g>
        <g transform="translate(966,1311) scale(0.69,0.69)"><g style="fill: rgb(0, 0, 0);" transform="">
<rect height="100" width="100"/>
</g></g>
        <g transform="translate(1035,1311) scale(0.69,0.69)"><g style="fill: rgb(0, 0, 0);" transform="">
<rect height="100" width="100"/>
</g></g>
        <g transform="translate(1104,1311) scale(0.69,0.69)"><g style="fill: rgb(0, 0, 0);" transform="">
<rect height="100" width="100"/>
</g></g>
        <g transform="translate(1173,1311) scale(0.69,0.69)"><g style="fill: rgb(0, 0, 0);" transform="">
<rect height="100" width="100"/>
</g></g>
        <g transform="translate(1242,1311) scale(0.69,0.69)"><g style="fill: rgb(0, 0, 0);" transform="">
<rect height="100" width="100"/>
</g></g>
        <g transform="translate(1380,1311) scale(0.69,0.69)"><g style="fill: rgb(0, 0, 0);" transform="">
<rect height="100" width="100"/>
</g></g>
        <g transform="translate(1587,1311) scale(0.69,0.69)"><g style="fill: rgb(0, 0, 0);" transform="">
<rect height="100" width="100"/>
</g></g>
        <g transform="translate(1725,1311) scale(0.69,0.69)"><g style="fill: rgb(0, 0, 0);" transform="">
<rect height="100" width="100"/>
</g></g>
        <g transform="translate(1863,1311) scale(0.69,0.69)"><g style="fill: rgb(0, 0, 0);" transform="">
<rect height="100" width="100"/>
</g></g>
        <g transform="translate(0,1380) scale(0.69,0.69)"><g style="fill: rgb(0, 0, 0);" transform="">
<rect height="100" width="100"/>
</g></g>
        <g transform="translate(207,1380) scale(0.69,0.69)"><g style="fill: rgb(0, 0, 0);" transform="">
<rect height="100" width="100"/>
</g></g>
        <g transform="translate(414,1380) scale(0.69,0.69)"><g style="fill: rgb(0, 0, 0);" transform="">
<rect height="100" width="100"/>
</g></g>
        <g transform="translate(552,1380) scale(0.69,0.69)"><g style="fill: rgb(0, 0, 0);" transform="">
<rect height="100" width="100"/>
</g></g>
        <g transform="translate(759,1380) scale(0.69,0.69)"><g style="fill: rgb(0, 0, 0);" transform="">
<rect height="100" width="100"/>
</g></g>
        <g transform="translate(966,1380) scale(0.69,0.69)"><g style="fill: rgb(0, 0, 0);" transform="">
<rect height="100" width="100"/>
</g></g>
        <g transform="translate(1104,1380) scale(0.69,0.69)"><g style="fill: rgb(0, 0, 0);" transform="">
<rect height="100" width="100"/>
</g></g>
        <g transform="translate(1173,1380) scale(0.69,0.69)"><g style="fill: rgb(0, 0, 0);" transform="">
<rect height="100" width="100"/>
</g></g>
        <g transform="translate(1242,1380) scale(0.69,0.69)"><g style="fill: rgb(0, 0, 0);" transform="">
<rect height="100" width="100"/>
</g></g>
        <g transform="translate(1311,1380) scale(0.69,0.69)"><g style="fill: rgb(0, 0, 0);" transform="">
<rect height="100" width="100"/>
</g></g>
        <g transform="translate(1380,1380) scale(0.69,0.69)"><g style="fill: rgb(0, 0, 0);" transform="">
<rect height="100" width="100"/>
</g></g>
        <g transform="translate(1449,1380) scale(0.69,0.69)"><g style="fill: rgb(0, 0, 0);" transform="">
<rect height="100" width="100"/>
</g></g>
        <g transform="translate(1518,1380) scale(0.69,0.69)"><g style="fill: rgb(0, 0, 0);" transform="">
<rect height="100" width="100"/>
</g></g>
        <g transform="translate(1587,1380) scale(0.69,0.69)"><g style="fill: rgb(0, 0, 0);" transform="">
<rect height="100" width="100"/>
</g></g>
        <g transform="translate(1656,1380) scale(0.69,0.69)"><g style="fill: rgb(0, 0, 0);" transform="">
<rect height="100" width="100"/>
</g></g>
        <g transform="translate(552,1449) scale(0.69,0.69)"><g style="fill: rgb(0, 0, 0);" transform="">
<rect height="100" width="100"/>
</g></g>
        <g transform="translate(621,1449) scale(0.69,0.69)"><g style="fill: rgb(0, 0, 0);" transform="">
<rect height="100" width="100"/>
</g></g>
        <g transform="translate(828,1449) scale(0.69,0.69)"><g style="fill: rgb(0, 0, 0);" transform="">
<rect height="100" width="100"/>
</g></g>
        <g transform="translate(966,1449) scale(0.69,0.69)"><g style="fill: rgb(0, 0, 0);" transform="">
<rect height="100" width="100"/>
</g></g>
        <g transform="translate(1104,1449) scale(0.69,0.69)"><g style="fill: rgb(0, 0, 0);" transform="">
<rect height="100" width="100"/>
</g></g>
        <g transform="translate(1311,1449) scale(0.69,0.69)"><g style="fill: rgb(0, 0, 0);" transform="">
<rect height="100" width="100"/>
</g></g>
        <g transform="translate(1380,1449) scale(0.69,0.69)"><g style="fill: rgb(0, 0, 0);" transform="">
<rect height="100" width="100"/>
</g></g>
        <g transform="translate(1656,1449) scale(0.69,0.69)"><g style="fill: rgb(0, 0, 0);" transform="">
<rect height="100" width="100"/>
</g></g>
        <g transform="translate(1794,1449) scale(0.69,0.69)"><g style="fill: rgb(0, 0, 0);" transform="">
<rect height="100" width="100"/>
</g></g>
        <g transform="translate(1863,1449) scale(0.69,0.69)"><g style="fill: rgb(0, 0, 0);" transform="">
<rect height="100" width="100"/>
</g></g>
        <g transform="translate(1932,1449) scale(0.69,0.69)"><g style="fill: rgb(0, 0, 0);" transform="">
<rect height="100" width="100"/>
</g></g>
        <g transform="translate(621,1518) scale(0.69,0.69)"><g style="fill: rgb(0, 0, 0);" transform="">
<rect height="100" width="100"/>
</g></g>
        <g transform="translate(759,1518) scale(0.69,0.69)"><g style="fill: rgb(0, 0, 0);" transform="">
<rect height="100" width="100"/>
</g></g>
        <g transform="translate(897,1518) scale(0.69,0.69)"><g style="fill: rgb(0, 0, 0);" transform="">
<rect height="100" width="100"/>
</g></g>
        <g transform="translate(1104,1518) scale(0.69,0.69)"><g style="fill: rgb(0, 0, 0);" transform="">
<rect height="100" width="100"/>
</g></g>
        <g transform="translate(1173,1518) scale(0.69,0.69)"><g style="fill: rgb(0, 0, 0);" transform="">
<rect height="100" width="100"/>
</g></g>
        <g transform="translate(1311,1518) scale(0.69,0.69)"><g style="fill: rgb(0, 0, 0);" transform="">
<rect height="100" width="100"/>
</g></g>
        <g transform="translate(1380,1518) scale(0.69,0.69)"><g style="fill: rgb(0, 0, 0);" transform="">
<rect height="100" width="100"/>
</g></g>
        <g transform="translate(1518,1518) scale(0.69,0.69)"><g style="fill: rgb(0, 0, 0);" transform="">
<rect height="100" width="100"/>
</g></g>
        <g transform="translate(1656,1518) scale(0.69,0.69)"><g style="fill: rgb(0, 0, 0);" transform="">
<rect height="100" width="100"/>
</g></g>
        <g transform="translate(1725,1518) scale(0.69,0.69)"><g style="fill: rgb(0, 0, 0);" transform="">
<rect height="100" width="100"/>
</g></g>
        <g transform="translate(1863,1518) scale(0.69,0.69)"><g style="fill: rgb(0, 0, 0);" transform="">
<rect height="100" width="100"/>
</g></g>
        <g transform="translate(1932,1518) scale(0.69,0.69)"><g style="fill: rgb(0, 0, 0);" transform="">
<rect height="100" width="100"/>
</g></g>
        <g transform="translate(690,1587) scale(0.69,0.69)"><g style="fill: rgb(0, 0, 0);" transform="">
<rect height="100" width="100"/>
</g></g>
        <g transform="translate(828,1587) scale(0.69,0.69)"><g style="fill: rgb(0, 0, 0);" transform="">
<rect height="100" width="100"/>
</g></g>
        <g transform="translate(1035,1587) scale(0.69,0.69)"><g style="fill: rgb(0, 0, 0);" transform="">
<rect height="100" width="100"/>
</g></g>
        <g transform="translate(1104,1587) scale(0.69,0.69)"><g style="fill: rgb(0, 0, 0);" transform="">
<rect height="100" width="100"/>
</g></g>
        <g transform="translate(1173,1587) scale(0.69,0.69)"><g style="fill: rgb(0, 0, 0);" transform="">
<rect height="100" width="100"/>
</g></g>
        <g transform="translate(1242,1587) scale(0.69,0.69)"><g style="fill: rgb(0, 0, 0);" transform="">
<rect height="100" width="100"/>
</g></g>
        <g transform="translate(1311,1587) scale(0.69,0.69)"><g style="fill: rgb(0, 0, 0);" transform="">
<rect height="100" width="100"/>
</g></g>
        <g transform="translate(1380,1587) scale(0.69,0.69)"><g style="fill: rgb(0, 0, 0);" transform="">
<rect height="100" width="100"/>
</g></g>
        <g transform="translate(1656,1587) scale(0.69,0.69)"><g style="fill: rgb(0, 0, 0);" transform="">
<rect height="100" width="100"/>
</g></g>
        <g transform="translate(1725,1587) scale(0.69,0.69)"><g style="fill: rgb(0, 0, 0);" transform="">
<rect height="100" width="100"/>
</g></g>
        <g transform="translate(1932,1587) scale(0.69,0.69)"><g style="fill: rgb(0, 0, 0);" transform="">
<rect height="100" width="100"/>
</g></g>
        <g transform="translate(552,1656) scale(0.69,0.69)"><g style="fill: rgb(0, 0, 0);" transform="">
<rect height="100" width="100"/>
</g></g>
        <g transform="translate(759,1656) scale(0.69,0.69)"><g style="fill: rgb(0, 0, 0);" transform="">
<rect height="100" width="100"/>
</g></g>
        <g transform="translate(828,1656) scale(0.69,0.69)"><g style="fill: rgb(0, 0, 0);" transform="">
<rect height="100" width="100"/>
</g></g>
        <g transform="translate(1173,1656) scale(0.69,0.69)"><g style="fill: rgb(0, 0, 0);" transform="">
<rect height="100" width="100"/>
</g></g>
        <g transform="translate(1380,1656) scale(0.69,0.69)"><g style="fill: rgb(0, 0, 0);" transform="">
<rect height="100" width="100"/>
</g></g>
        <g transform="translate(1449,1656) scale(0.69,0.69)"><g style="fill: rgb(0, 0, 0);" transform="">
<rect height="100" width="100"/>
</g></g>
        <g transform="translate(1518,1656) scale(0.69,0.69)"><g style="fill: rgb(0, 0, 0);" transform="">
<rect height="100" width="100"/>
</g></g>
        <g transform="translate(1587,1656) scale(0.69,0.69)"><g style="fill: rgb(0, 0, 0);" transform="">
<rect height="100" width="100"/>
</g></g>
        <g transform="translate(1656,1656) scale(0.69,0.69)"><g style="fill: rgb(0, 0, 0);" transform="">
<rect height="100" width="100"/>
</g></g>
        <g transform="translate(1863,1656) scale(0.69,0.69)"><g style="fill: rgb(0, 0, 0);" transform="">
<rect height="100" width="100"/>
</g></g>
        <g transform="translate(1932,1656) scale(0.69,0.69)"><g style="fill: rgb(0, 0, 0);" transform="">
<rect height="100" width="100"/>
</g></g>
        <g transform="translate(621,1725) scale(0.69,0.69)"><g style="fill: rgb(0, 0, 0);" transform="">
<rect height="100" width="100"/>
</g></g>
        <g transform="translate(690,1725) scale(0.69,0.69)"><g style="fill: rgb(0, 0, 0);" transform="">
<rect height="100" width="100"/>
</g></g>
        <g transform="translate(828,1725) scale(0.69,0.69)"><g style="fill: rgb(0, 0, 0);" transform="">
<rect height="100" width="100"/>
</g></g>
        <g transform="translate(1104,1725) scale(0.69,0.69)"><g style="fill: rgb(0, 0, 0);" transform="">
<rect height="100" width="100"/>
</g></g>
        <g transform="translate(1311,1725) scale(0.69,0.69)"><g style="fill: rgb(0, 0, 0);" transform="">
<rect height="100" width="100"/>
</g></g>
        <g transform="translate(1380,1725) scale(0.69,0.69)"><g style="fill: rgb(0, 0, 0);" transform="">
<rect height="100" width="100"/>
</g></g>
        <g transform="translate(1587,1725) scale(0.69,0.69)"><g style="fill: rgb(0, 0, 0);" transform="">
<rect height="100" width="100"/>
</g></g>
        <g transform="translate(1656,1725) scale(0.69,0.69)"><g style="fill: rgb(0, 0, 0);" transform="">
<rect height="100" width="100"/>
</g></g>
        <g transform="translate(1794,1725) scale(0.69,0.69)"><g style="fill: rgb(0, 0, 0);" transform="">
<rect height="100" width="100"/>
</g></g>
        <g transform="translate(1863,1725) scale(0.69,0.69)"><g style="fill: rgb(0, 0, 0);" transform="">
<rect height="100" width="100"/>
</g></g>
        <g transform="translate(1932,1725) scale(0.69,0.69)"><g style="fill: rgb(0, 0, 0);" transform="">
<rect height="100" width="100"/>
</g></g>
        <g transform="translate(552,1794) scale(0.69,0.69)"><g style="fill: rgb(0, 0, 0);" transform="">
<rect height="100" width="100"/>
</g></g>
        <g transform="translate(621,1794) scale(0.69,0.69)"><g style="fill: rgb(0, 0, 0);" transform="">
<rect height="100" width="100"/>
</g></g>
        <g transform="translate(1380,1794) scale(0.69,0.69)"><g style="fill: rgb(0, 0, 0);" transform="">
<rect height="100" width="100"/>
</g></g>
        <g transform="translate(1449,1794) scale(0.69,0.69)"><g style="fill: rgb(0, 0, 0);" transform="">
<rect height="100" width="100"/>
</g></g>
        <g transform="translate(1587,1794) scale(0.69,0.69)"><g style="fill: rgb(0, 0, 0);" transform="">
<rect height="100" width="100"/>
</g></g>
        <g transform="translate(1656,1794) scale(0.69,0.69)"><g style="fill: rgb(0, 0, 0);" transform="">
<rect height="100" width="100"/>
</g></g>
        <g transform="translate(1725,1794) scale(0.69,0.69)"><g style="fill: rgb(0, 0, 0);" transform="">
<rect height="100" width="100"/>
</g></g>
        <g transform="translate(1932,1794) scale(0.69,0.69)"><g style="fill: rgb(0, 0, 0);" transform="">
<rect height="100" width="100"/>
</g></g>
        <g transform="translate(621,1863) scale(0.69,0.69)"><g style="fill: rgb(0, 0, 0);" transform="">
<rect height="100" width="100"/>
</g></g>
        <g transform="translate(690,1863) scale(0.69,0.69)"><g style="fill: rgb(0, 0, 0);" transform="">
<rect height="100" width="100"/>
</g></g>
        <g transform="translate(759,1863) scale(0.69,0.69)"><g style="fill: rgb(0, 0, 0);" transform="">
<rect height="100" width="100"/>
</g></g>
        <g transform="translate(1035,1863) scale(0.69,0.69)"><g style="fill: rgb(0, 0, 0);" transform="">
<rect height="100" width="100"/>
</g></g>
        <g transform="translate(1173,1863) scale(0.69,0.69)"><g style="fill: rgb(0, 0, 0);" transform="">
<rect height="100" width="100"/>
</g></g>
        <g transform="translate(1242,1863) scale(0.69,0.69)"><g style="fill: rgb(0, 0, 0);" transform="">
<rect height="100" width="100"/>
</g></g>
        <g transform="translate(1380,1863) scale(0.69,0.69)"><g style="fill: rgb(0, 0, 0);" transform="">
<rect height="100" width="100"/>
</g></g>
        <g transform="translate(1863,1863) scale(0.69,0.69)"><g style="fill: rgb(0, 0, 0);" transform="">
<rect height="100" width="100"/>
</g></g>
        <g transform="translate(552,1932) scale(0.69,0.69)"><g style="fill: rgb(0, 0, 0);" transform="">
<rect height="100" width="100"/>
</g></g>
        <g transform="translate(1104,1932) scale(0.69,0.69)"><g style="fill: rgb(0, 0, 0);" transform="">
<rect height="100" width="100"/>
</g></g>
        <g transform="translate(1173,1932) scale(0.69,0.69)"><g style="fill: rgb(0, 0, 0);" transform="">
<rect height="100" width="100"/>
</g></g>
        <g transform="translate(1311,1932) scale(0.69,0.69)"><g style="fill: rgb(0, 0, 0);" transform="">
<rect height="100" width="100"/>
</g></g>
        <g transform="translate(1380,1932) scale(0.69,0.69)"><g style="fill: rgb(0, 0, 0);" transform="">
<rect height="100" width="100"/>
</g></g>
        <g transform="translate(1587,1932) scale(0.69,0.69)"><g style="fill: rgb(0, 0, 0);" transform="">
<rect height="100" width="100"/>
</g></g>
        <g transform="translate(1863,1932) scale(0.69,0.69)"><g style="fill: rgb(0, 0, 0);" transform="">
<rect height="100" width="100"/>
</g></g>
        <g transform="translate(1932,1932) scale(0.69,0.69)"><g style="fill: rgb(0, 0, 0);" transform="">
<rect height="100" width="100"/>
</g></g>
        <g transform="translate(0,0) scale(4.83, 4.83)"><g style="fill: rgb(0, 0, 0);" transform="">
<g>
	<rect height="70" style="fill:none;" width="70" x="15" y="15"/>
    <path d="M85,0H15H0v15v70v15h15h70h15V85V15V0H85z M85,85H15V15h70V85z"/>
</g>
</g></g>
        <g transform="translate(1518,0) scale(4.83, 4.83)"><g style="fill: rgb(0, 0, 0);" transform="">
<g>
	<rect height="70" style="fill:none;" width="70" x="15" y="15"/>
    <path d="M85,0H15H0v15v70v15h15h70h15V85V15V0H85z M85,85H15V15h70V85z"/>
</g>
</g></g>
        <g transform="translate(0,1518) scale(4.83, 4.83)"><g style="fill: rgb(0, 0, 0);" transform="">
<g>
	<rect height="70" style="fill:none;" width="70" x="15" y="15"/>
    <path d="M85,0H15H0v15v70v15h15h70h15V85V15V0H85z M85,85H15V15h70V85z"/>
</g>
</g></g>
        <g transform="translate(138,138) scale(2.07, 2.07)"><g style="fill: rgb(0, 0, 0);" transform="">
<rect height="100" width="100"/>
</g></g>
        <g transform="translate(1656,138) scale(2.07, 2.07)"><g style="fill: rgb(0, 0, 0);" transform="">
<rect height="100" width="100"/>
</g></g>
        <g transform="translate(138,1656) scale(2.07, 2.07)"><g style="fill: rgb(0, 0, 0);" transform="">
<rect height="100" width="100"/>
</g></g></g></svg>
